<svg width="311" height="176" viewBox="0 0 311 176" fill="none" xmlns="http://www.w3.org/2000/svg">
<path d="M106.563 48C106.563 21.4903 128.053 0 154.563 0C181.072 0 202.563 21.4903 202.563 48C202.563 74.5097 181.072 96 154.563 96C128.053 96 106.563 74.5097 106.563 48Z" fill="#F5F5F5"/>
<path d="M146.363 64C150.18 65.9581 154.571 66.4885 158.744 65.4955C162.918 64.5026 166.6 62.0516 169.126 58.5843C171.652 55.117 172.857 50.8614 172.524 46.5843C172.19 42.3072 170.34 38.2899 167.306 35.2564C164.273 32.2228 160.255 30.3725 155.978 30.0388C151.701 29.7051 147.446 30.9101 143.978 33.4365C140.511 35.9629 138.06 39.6446 137.067 43.8182C136.074 47.9918 136.604 52.3828 138.563 56.2L134.563 68L146.363 64Z" stroke="#007AFF" stroke-width="3" stroke-linecap="round" stroke-linejoin="round"/>
<path d="M93.1528 140.5V125.955H98.4795C99.5117 125.955 100.366 126.125 101.043 126.466C101.72 126.802 102.227 127.259 102.563 127.837C102.899 128.41 103.068 129.056 103.068 129.776C103.068 130.382 102.956 130.893 102.734 131.31C102.511 131.722 102.213 132.053 101.839 132.304C101.47 132.55 101.062 132.73 100.617 132.844V132.986C101.1 133.009 101.571 133.166 102.031 133.455C102.495 133.739 102.878 134.143 103.181 134.669C103.484 135.195 103.636 135.834 103.636 136.587C103.636 137.33 103.461 137.998 103.11 138.589C102.765 139.177 102.229 139.643 101.505 139.989C100.781 140.33 99.855 140.5 98.7281 140.5H93.1528ZM95.3474 138.618H98.515C99.5661 138.618 100.319 138.414 100.774 138.007C101.228 137.6 101.455 137.091 101.455 136.48C101.455 136.021 101.339 135.599 101.107 135.216C100.875 134.832 100.544 134.527 100.113 134.3C99.6869 134.072 99.1803 133.959 98.5931 133.959H95.3474V138.618ZM95.3474 132.247H98.2877C98.7802 132.247 99.2229 132.152 99.6159 131.963C100.014 131.774 100.328 131.509 100.56 131.168C100.797 130.822 100.916 130.415 100.916 129.946C100.916 129.345 100.705 128.84 100.283 128.433C99.8621 128.026 99.2158 127.822 98.3446 127.822H95.3474V132.247ZM108.149 137.524L112.957 129.591H115.244V140.5H113.163V132.56L108.377 140.5H106.068V129.591H108.149V137.524ZM126.516 125.528L127.396 126.871C127.07 127.169 126.698 127.382 126.281 127.51C125.869 127.633 125.394 127.711 124.854 127.744C124.314 127.773 123.696 127.799 123 127.822C122.214 127.846 121.568 128.017 121.061 128.334C120.555 128.646 120.164 129.11 119.889 129.726C119.619 130.337 119.444 131.104 119.364 132.027H119.499C119.854 131.35 120.346 130.843 120.976 130.507C121.61 130.171 122.323 130.003 123.114 130.003C123.994 130.003 124.778 130.204 125.465 130.607C126.151 131.009 126.691 131.598 127.084 132.375C127.482 133.147 127.68 134.091 127.68 135.209C127.68 136.34 127.472 137.318 127.055 138.142C126.644 138.966 126.061 139.603 125.308 140.053C124.56 140.498 123.677 140.72 122.659 140.72C121.641 140.72 120.753 140.491 119.996 140.031C119.243 139.567 118.658 138.881 118.242 137.972C117.83 137.062 117.624 135.94 117.624 134.605V133.526C117.624 131.03 118.069 129.153 118.959 127.893C119.849 126.634 121.18 125.988 122.95 125.955C123.523 125.94 124.035 125.938 124.484 125.947C124.934 125.952 125.327 125.931 125.663 125.884C126.004 125.831 126.288 125.713 126.516 125.528ZM122.666 138.938C123.258 138.938 123.767 138.788 124.193 138.49C124.624 138.187 124.956 137.759 125.188 137.205C125.42 136.651 125.536 135.997 125.536 135.244C125.536 134.506 125.42 133.878 125.188 133.362C124.956 132.846 124.624 132.453 124.193 132.183C123.762 131.909 123.246 131.771 122.645 131.771C122.2 131.771 121.802 131.849 121.452 132.006C121.101 132.157 120.801 132.382 120.55 132.68C120.304 132.979 120.112 133.343 119.975 133.774C119.842 134.2 119.771 134.69 119.761 135.244C119.761 136.371 120.02 137.268 120.536 137.936C121.056 138.604 121.767 138.938 122.666 138.938ZM134.754 140.72C133.68 140.72 132.754 140.491 131.977 140.031C131.206 139.567 130.609 138.916 130.188 138.078C129.771 137.235 129.563 136.248 129.563 135.116C129.563 133.999 129.771 133.014 130.188 132.162C130.609 131.31 131.196 130.644 131.949 130.166C132.707 129.688 133.592 129.449 134.605 129.449C135.221 129.449 135.817 129.551 136.395 129.754C136.973 129.958 137.491 130.277 137.95 130.713C138.41 131.149 138.772 131.714 139.037 132.411C139.302 133.102 139.435 133.942 139.435 134.932V135.685H130.763V134.094H137.354C137.354 133.535 137.24 133.04 137.013 132.609C136.786 132.174 136.466 131.83 136.054 131.58C135.647 131.329 135.169 131.203 134.619 131.203C134.023 131.203 133.502 131.35 133.057 131.643C132.617 131.932 132.276 132.311 132.034 132.78C131.797 133.244 131.679 133.748 131.679 134.293V135.536C131.679 136.265 131.807 136.885 132.063 137.396C132.323 137.908 132.685 138.298 133.149 138.568C133.613 138.833 134.155 138.966 134.776 138.966C135.178 138.966 135.545 138.909 135.877 138.795C136.208 138.677 136.494 138.502 136.736 138.27C136.977 138.038 137.162 137.751 137.29 137.411L139.3 137.773C139.139 138.365 138.85 138.883 138.433 139.328C138.021 139.768 137.503 140.112 136.878 140.358C136.258 140.599 135.55 140.72 134.754 140.72ZM141.791 144.591V129.591H143.865V131.359H144.042C144.165 131.132 144.343 130.869 144.575 130.571C144.807 130.273 145.129 130.012 145.541 129.79C145.953 129.562 146.497 129.449 147.174 129.449C148.055 129.449 148.841 129.671 149.532 130.116C150.224 130.562 150.766 131.203 151.159 132.041C151.557 132.879 151.755 133.888 151.755 135.067C151.755 136.246 151.559 137.257 151.166 138.099C150.773 138.937 150.233 139.584 149.547 140.038C148.86 140.488 148.076 140.713 147.196 140.713C146.533 140.713 145.991 140.602 145.569 140.379C145.153 140.157 144.826 139.896 144.589 139.598C144.352 139.3 144.17 139.035 144.042 138.803H143.915V144.591H141.791ZM143.872 135.045C143.872 135.812 143.983 136.485 144.206 137.062C144.428 137.64 144.75 138.092 145.172 138.419C145.593 138.741 146.109 138.902 146.72 138.902C147.354 138.902 147.885 138.734 148.311 138.398C148.737 138.057 149.059 137.595 149.277 137.013C149.499 136.43 149.611 135.775 149.611 135.045C149.611 134.326 149.502 133.679 149.284 133.107C149.071 132.534 148.749 132.081 148.318 131.75C147.892 131.419 147.359 131.253 146.72 131.253C146.104 131.253 145.584 131.411 145.157 131.729C144.736 132.046 144.416 132.489 144.199 133.057C143.981 133.625 143.872 134.288 143.872 135.045ZM154.135 140.5V129.591H156.258V140.5H154.135ZM155.207 127.908C154.838 127.908 154.521 127.785 154.255 127.538C153.995 127.287 153.865 126.989 153.865 126.643C153.865 126.293 153.995 125.995 154.255 125.749C154.521 125.498 154.838 125.372 155.207 125.372C155.576 125.372 155.891 125.498 156.152 125.749C156.417 125.995 156.549 126.293 156.549 126.643C156.549 126.989 156.417 127.287 156.152 127.538C155.891 127.785 155.576 127.908 155.207 127.908ZM158.504 131.423V129.591H167.709V131.423H164.151V140.5H162.077V131.423H158.504ZM171.553 133.341H174.721C176.056 133.341 177.083 133.672 177.803 134.335C178.523 134.998 178.883 135.853 178.883 136.899C178.883 137.581 178.722 138.194 178.4 138.739C178.078 139.283 177.607 139.714 176.986 140.031C176.366 140.344 175.611 140.5 174.721 140.5H169.955V129.591H172.036V138.668H174.721C175.331 138.668 175.833 138.509 176.226 138.192C176.619 137.87 176.816 137.46 176.816 136.963C176.816 136.437 176.619 136.009 176.226 135.678C175.833 135.341 175.331 135.173 174.721 135.173H171.553V133.341ZM195.314 129.591V140.5H193.24V129.591H195.314ZM194.412 134.655V136.487C194.085 136.62 193.739 136.738 193.375 136.842C193.01 136.942 192.627 137.02 192.224 137.077C191.822 137.134 191.403 137.162 190.967 137.162C189.618 137.162 188.545 136.833 187.75 136.175C186.954 135.512 186.557 134.499 186.557 133.135V129.57H188.623V133.135C188.623 133.651 188.718 134.07 188.907 134.392C189.097 134.714 189.367 134.951 189.717 135.102C190.067 135.254 190.484 135.33 190.967 135.33C191.606 135.33 192.196 135.27 192.736 135.152C193.28 135.029 193.839 134.863 194.412 134.655ZM201.313 140.741C200.622 140.741 199.997 140.614 199.438 140.358C198.88 140.098 198.437 139.721 198.11 139.229C197.788 138.736 197.627 138.133 197.627 137.418C197.627 136.802 197.746 136.295 197.982 135.898C198.219 135.5 198.539 135.185 198.941 134.953C199.344 134.721 199.793 134.546 200.291 134.428C200.788 134.309 201.294 134.219 201.81 134.158C202.464 134.082 202.994 134.02 203.401 133.973C203.809 133.921 204.104 133.838 204.289 133.724C204.474 133.611 204.566 133.426 204.566 133.17V133.121C204.566 132.5 204.391 132.02 204.041 131.679C203.695 131.338 203.179 131.168 202.492 131.168C201.777 131.168 201.214 131.326 200.802 131.643C200.395 131.956 200.113 132.304 199.957 132.688L197.961 132.233C198.198 131.57 198.543 131.035 198.998 130.628C199.457 130.216 199.985 129.918 200.582 129.733C201.178 129.544 201.806 129.449 202.464 129.449C202.899 129.449 203.361 129.501 203.849 129.605C204.341 129.705 204.801 129.889 205.227 130.159C205.658 130.429 206.01 130.815 206.285 131.317C206.56 131.814 206.697 132.46 206.697 133.256V140.5H204.623V139.009H204.538C204.4 139.283 204.194 139.553 203.92 139.818C203.645 140.083 203.292 140.304 202.862 140.479C202.431 140.654 201.915 140.741 201.313 140.741ZM201.775 139.037C202.362 139.037 202.864 138.921 203.281 138.689C203.702 138.457 204.022 138.154 204.239 137.78C204.462 137.401 204.573 136.996 204.573 136.565V135.159C204.497 135.235 204.351 135.306 204.133 135.372C203.92 135.434 203.676 135.488 203.401 135.536C203.127 135.578 202.859 135.618 202.599 135.656C202.338 135.689 202.121 135.718 201.945 135.741C201.533 135.794 201.157 135.881 200.816 136.004C200.48 136.127 200.21 136.305 200.006 136.537C199.808 136.764 199.708 137.067 199.708 137.446C199.708 137.972 199.902 138.369 200.291 138.639C200.679 138.904 201.174 139.037 201.775 139.037ZM208.172 131.423V129.591H217.377V131.423H213.819V140.5H211.745V131.423H208.172Z" fill="#1A1A1A"/>
<path d="M7.59659 161.318V171.5H6.36364V162.412H1.23296V171.5H2.83122e-06V161.318H7.59659ZM9.92454 174.364V163.864H11.0581V165.077H11.1973C11.2834 164.944 11.4028 164.775 11.5552 164.57C11.711 164.361 11.9331 164.175 12.2214 164.013C12.5131 163.847 12.9075 163.764 13.4047 163.764C14.0476 163.764 14.6144 163.925 15.1049 164.246C15.5955 164.568 15.9783 165.024 16.2534 165.614C16.5285 166.204 16.666 166.9 16.666 167.702C16.666 168.51 16.5285 169.211 16.2534 169.805C15.9783 170.395 15.5971 170.852 15.1099 171.177C14.6227 171.498 14.0609 171.659 13.4245 171.659C12.934 171.659 12.5413 171.578 12.2463 171.415C11.9513 171.25 11.7243 171.062 11.5652 170.854C11.4061 170.642 11.2834 170.466 11.1973 170.327H11.0978V174.364H9.92454ZM11.078 167.682C11.078 168.259 11.1625 168.767 11.3315 169.208C11.5005 169.646 11.7475 169.989 12.0723 170.237C12.3971 170.482 12.7948 170.605 13.2655 170.605C13.756 170.605 14.1653 170.476 14.4934 170.217C14.8249 169.955 15.0735 169.604 15.2392 169.163C15.4082 168.719 15.4927 168.225 15.4927 167.682C15.4927 167.145 15.4099 166.661 15.2441 166.23C15.0817 165.796 14.8348 165.453 14.5034 165.201C14.1753 164.946 13.7626 164.818 13.2655 164.818C12.7882 164.818 12.3871 164.939 12.0623 165.181C11.7375 165.42 11.4922 165.754 11.3265 166.185C11.1608 166.613 11.078 167.112 11.078 167.682ZM19.6291 169.77L23.3081 163.864H24.6603V171.5H23.487V165.594L19.828 171.5H18.4558V163.864H19.6291V169.77ZM29.9116 167.264V168.358H26.1531V167.264H29.9116ZM32.4173 166.151H31.244C31.1545 165.803 30.9556 165.494 30.6474 165.226C30.3425 164.954 29.9315 164.818 29.4144 164.818C28.957 164.818 28.556 164.937 28.2113 165.176C27.8699 165.411 27.6031 165.745 27.4109 166.175C27.2219 166.603 27.1275 167.105 27.1275 167.682C27.1275 168.272 27.2203 168.786 27.4059 169.223C27.5948 169.661 27.86 170 28.2014 170.242C28.546 170.484 28.9504 170.605 29.4144 170.605C29.7193 170.605 29.9961 170.552 30.2447 170.446C30.4933 170.34 30.7037 170.188 30.8761 169.989C31.0484 169.79 31.171 169.551 31.244 169.273H32.4173C32.351 169.723 32.1869 170.129 31.9251 170.491C31.6666 170.849 31.3235 171.134 30.896 171.346C30.4717 171.555 29.9779 171.659 29.4144 171.659C28.7051 171.659 28.092 171.492 27.5749 171.157C27.0579 170.819 26.6585 170.352 26.3768 169.755C26.0951 169.155 25.9542 168.464 25.9542 167.682C25.9542 166.92 26.0967 166.243 26.3817 165.653C26.6701 165.063 27.0711 164.601 27.5849 164.266C28.1019 163.932 28.7051 163.764 29.3945 163.764C29.9315 163.764 30.4154 163.864 30.8462 164.062C31.2771 164.261 31.6301 164.54 31.9052 164.898C32.1803 165.256 32.351 165.673 32.4173 166.151ZM33.5545 173.688V170.406H34.1909C34.3467 170.244 34.4809 170.068 34.5936 169.879C34.7063 169.69 34.804 169.467 34.8869 169.208C34.9731 168.946 35.046 168.628 35.1056 168.254C35.1653 167.876 35.2183 167.42 35.2647 166.886L35.5233 163.864H40.3755V170.406H41.5488V173.688H40.3755V171.5H34.7278V173.688H33.5545ZM35.5233 170.406H39.2022V164.957H36.617L36.4181 166.886C36.3353 167.685 36.2325 168.383 36.1099 168.979C35.9873 169.576 35.7917 170.052 35.5233 170.406ZM48.217 167.145V168.239H44.0011V167.145H48.217ZM44.2795 163.864V171.5H43.1062V163.864H44.2795ZM49.1119 163.864V171.5H47.9386V163.864H49.1119ZM53.5018 171.679C53.0179 171.679 52.5787 171.588 52.1843 171.406C51.7899 171.22 51.4767 170.953 51.2447 170.605C51.0127 170.254 50.8967 169.83 50.8967 169.332C50.8967 168.895 50.9828 168.54 51.1552 168.268C51.3275 167.993 51.5579 167.778 51.8462 167.622C52.1346 167.466 52.4528 167.35 52.8008 167.274C53.1521 167.195 53.5051 167.132 53.8597 167.085C54.3237 167.026 54.6999 166.981 54.9883 166.951C55.28 166.918 55.4921 166.863 55.6246 166.787C55.7605 166.711 55.8285 166.578 55.8285 166.389V166.349C55.8285 165.859 55.6943 165.478 55.4258 165.206C55.1606 164.934 54.7579 164.798 54.2177 164.798C53.6576 164.798 53.2184 164.921 52.9002 165.166C52.582 165.411 52.3583 165.673 52.2291 165.952L51.1154 165.554C51.3143 165.09 51.5794 164.729 51.9109 164.47C52.2456 164.208 52.6102 164.026 53.0046 163.923C53.4023 163.817 53.7934 163.764 54.1779 163.764C54.4232 163.764 54.7049 163.794 55.0231 163.854C55.3446 163.91 55.6545 164.028 55.9528 164.207C56.2544 164.386 56.5046 164.656 56.7035 165.017C56.9023 165.378 57.0018 165.862 57.0018 166.469V171.5H55.8285V170.466H55.7688C55.6893 170.632 55.5567 170.809 55.3711 170.998C55.1855 171.187 54.9386 171.348 54.6303 171.48C54.3221 171.613 53.9459 171.679 53.5018 171.679ZM53.6808 170.625C54.1448 170.625 54.5359 170.534 54.8541 170.352C55.1755 170.169 55.4175 169.934 55.5799 169.646C55.7456 169.357 55.8285 169.054 55.8285 168.736V167.662C55.7788 167.722 55.6694 167.776 55.5004 167.826C55.3346 167.872 55.1424 167.914 54.9237 167.95C54.7082 167.983 54.4978 168.013 54.2923 168.04C54.0901 168.063 53.926 168.083 53.8001 168.099C53.4951 168.139 53.2101 168.204 52.945 168.293C52.6831 168.379 52.471 168.51 52.3086 168.686C52.1495 168.858 52.07 169.094 52.07 169.392C52.07 169.8 52.2208 170.108 52.5224 170.317C52.8273 170.522 53.2134 170.625 53.6808 170.625ZM60.3166 169.77L63.9956 163.864H65.3478V171.5H64.1745V165.594L60.5155 171.5H59.1433V163.864H60.3166V169.77ZM63.22 161.318H64.3137C64.3137 161.855 64.1281 162.294 63.7569 162.636C63.3857 162.977 62.8819 163.148 62.2456 163.148C61.6191 163.148 61.1203 162.977 60.7491 162.636C60.3812 162.294 60.1973 161.855 60.1973 161.318H61.291C61.291 161.577 61.3623 161.804 61.5048 161.999C61.6506 162.195 61.8976 162.293 62.2456 162.293C62.5936 162.293 62.8422 162.195 62.9913 161.999C63.1438 161.804 63.22 161.577 63.22 161.318ZM66.4577 164.957V163.864H72.6623V164.957H70.1566V171.5H68.9833V164.957H66.4577ZM77.179 171.659C76.4432 171.659 75.8085 171.497 75.2749 171.172C74.7446 170.844 74.3352 170.386 74.0469 169.8C73.7618 169.21 73.6193 168.524 73.6193 167.741C73.6193 166.959 73.7618 166.27 74.0469 165.673C74.3352 165.073 74.7363 164.606 75.25 164.271C75.767 163.933 76.3703 163.764 77.0597 163.764C77.4574 163.764 77.8501 163.83 78.2379 163.963C78.6257 164.096 78.9787 164.311 79.2969 164.609C79.6151 164.904 79.8686 165.295 80.0575 165.783C80.2465 166.27 80.3409 166.87 80.3409 167.582V168.08H74.4545V167.065H79.1477C79.1477 166.634 79.0616 166.25 78.8892 165.912C78.7202 165.574 78.4782 165.307 78.1634 165.112C77.8518 164.916 77.4839 164.818 77.0597 164.818C76.5923 164.818 76.188 164.934 75.8466 165.166C75.5085 165.395 75.2483 165.693 75.0661 166.061C74.8838 166.429 74.7926 166.823 74.7926 167.244V167.92C74.7926 168.497 74.892 168.986 75.0909 169.387C75.2931 169.785 75.5732 170.088 75.9311 170.297C76.2891 170.502 76.705 170.605 77.179 170.605C77.4872 170.605 77.7656 170.562 78.0142 170.476C78.2661 170.386 78.4832 170.254 78.6655 170.078C78.8478 169.899 78.9886 169.677 79.0881 169.412L80.2216 169.73C80.1023 170.115 79.9018 170.453 79.62 170.744C79.3383 171.033 78.9903 171.258 78.576 171.42C78.1617 171.58 77.696 171.659 77.179 171.659ZM85.228 171.659C84.5121 171.659 83.8956 171.49 83.3786 171.152C82.8615 170.814 82.4638 170.348 82.1854 169.755C81.907 169.162 81.7678 168.484 81.7678 167.722C81.7678 166.946 81.9103 166.262 82.1953 165.668C82.4837 165.072 82.8847 164.606 83.3984 164.271C83.9155 163.933 84.5187 163.764 85.2081 163.764C85.745 163.764 86.2289 163.864 86.6598 164.062C87.0907 164.261 87.4437 164.54 87.7188 164.898C87.9938 165.256 88.1645 165.673 88.2308 166.151H87.0575C86.968 165.803 86.7692 165.494 86.4609 165.226C86.156 164.954 85.745 164.818 85.228 164.818C84.7706 164.818 84.3696 164.937 84.0249 165.176C83.6835 165.411 83.4167 165.745 83.2244 166.175C83.0355 166.603 82.9411 167.105 82.9411 167.682C82.9411 168.272 83.0339 168.786 83.2195 169.223C83.4084 169.661 83.6735 170 84.0149 170.242C84.3596 170.484 84.764 170.605 85.228 170.605C85.5329 170.605 85.8097 170.552 86.0582 170.446C86.3068 170.34 86.5173 170.188 86.6896 169.989C86.862 169.79 86.9846 169.551 87.0575 169.273H88.2308C88.1645 169.723 88.0005 170.129 87.7386 170.491C87.4801 170.849 87.1371 171.134 86.7095 171.346C86.2853 171.555 85.7914 171.659 85.228 171.659ZM94.5398 171.5V164.938H92.5114C92.054 164.938 91.6944 165.044 91.4325 165.256C91.1707 165.468 91.0398 165.759 91.0398 166.131C91.0398 166.495 91.1574 166.782 91.3928 166.991C91.6314 167.2 91.9579 167.304 92.3722 167.304H94.8381V168.398H92.3722C91.8551 168.398 91.4093 168.307 91.0348 168.124C90.6603 167.942 90.3719 167.682 90.1697 167.344C89.9676 167.002 89.8665 166.598 89.8665 166.131C89.8665 165.66 89.9725 165.256 90.1847 164.918C90.3968 164.58 90.7001 164.319 91.0945 164.137C91.4922 163.955 91.9645 163.864 92.5114 163.864H95.6534V171.5H94.5398ZM89.4489 171.5L91.6165 167.702H92.8892L90.7216 171.5H89.4489ZM100.93 173.688V170.406H101.566C101.722 170.244 101.856 170.068 101.969 169.879C102.081 169.69 102.179 169.467 102.262 169.208C102.348 168.946 102.421 168.628 102.481 168.254C102.54 167.876 102.593 167.42 102.64 166.886L102.898 163.864H107.751V170.406H108.924V173.688H107.751V171.5H102.103V173.688H100.93ZM102.898 170.406H106.577V164.957H103.992L103.793 166.886C103.71 167.685 103.608 168.383 103.485 168.979C103.362 169.576 103.167 170.052 102.898 170.406ZM113.583 171.659C112.894 171.659 112.289 171.495 111.769 171.167C111.252 170.839 110.847 170.38 110.556 169.79C110.267 169.2 110.123 168.51 110.123 167.722C110.123 166.926 110.267 166.232 110.556 165.638C110.847 165.045 111.252 164.585 111.769 164.256C112.289 163.928 112.894 163.764 113.583 163.764C114.273 163.764 114.876 163.928 115.393 164.256C115.913 164.585 116.318 165.045 116.606 165.638C116.898 166.232 117.044 166.926 117.044 167.722C117.044 168.51 116.898 169.2 116.606 169.79C116.318 170.38 115.913 170.839 115.393 171.167C114.876 171.495 114.273 171.659 113.583 171.659ZM113.583 170.605C114.107 170.605 114.538 170.471 114.876 170.202C115.214 169.934 115.464 169.581 115.627 169.143C115.789 168.706 115.87 168.232 115.87 167.722C115.87 167.211 115.789 166.736 115.627 166.295C115.464 165.854 115.214 165.498 114.876 165.226C114.538 164.954 114.107 164.818 113.583 164.818C113.06 164.818 112.629 164.954 112.291 165.226C111.953 165.498 111.703 165.854 111.54 166.295C111.378 166.736 111.297 167.211 111.297 167.722C111.297 168.232 111.378 168.706 111.54 169.143C111.703 169.581 111.953 169.934 112.291 170.202C112.629 170.471 113.06 170.605 113.583 170.605ZM122.772 171.5V163.864H123.945V167.185H124.721L127.465 163.864H128.977L125.894 167.543L129.017 171.5H127.505L124.999 168.278H123.945V171.5H122.772ZM130.292 171.5V163.864H131.465V171.5H130.292ZM130.888 162.591C130.66 162.591 130.462 162.513 130.297 162.357C130.134 162.201 130.053 162.014 130.053 161.795C130.053 161.577 130.134 161.389 130.297 161.234C130.462 161.078 130.66 161 130.888 161C131.117 161 131.313 161.078 131.475 161.234C131.641 161.389 131.724 161.577 131.724 161.795C131.724 162.014 131.641 162.201 131.475 162.357C131.313 162.513 131.117 162.591 130.888 162.591ZM137.79 169.909L140.455 163.864H141.569L138.267 171.5H137.313L134.071 163.864H135.165L137.79 169.909ZM134.787 163.864V171.5H133.614V163.864H134.787ZM140.793 171.5V163.864H141.966V171.5H140.793ZM149.225 167.145V168.239H145.009V167.145H149.225ZM145.287 163.864V171.5H144.114V163.864H145.287ZM150.12 163.864V171.5H148.946V163.864H150.12ZM154.51 171.679C154.026 171.679 153.587 171.588 153.192 171.406C152.798 171.22 152.484 170.953 152.252 170.605C152.02 170.254 151.904 169.83 151.904 169.332C151.904 168.895 151.991 168.54 152.163 168.268C152.335 167.993 152.566 167.778 152.854 167.622C153.142 167.466 153.461 167.35 153.809 167.274C154.16 167.195 154.513 167.132 154.868 167.085C155.332 167.026 155.708 166.981 155.996 166.951C156.288 166.918 156.5 166.863 156.632 166.787C156.768 166.711 156.836 166.578 156.836 166.389V166.349C156.836 165.859 156.702 165.478 156.434 165.206C156.168 164.934 155.766 164.798 155.226 164.798C154.665 164.798 154.226 164.921 153.908 165.166C153.59 165.411 153.366 165.673 153.237 165.952L152.123 165.554C152.322 165.09 152.587 164.729 152.919 164.47C153.253 164.208 153.618 164.026 154.012 163.923C154.41 163.817 154.801 163.764 155.186 163.764C155.431 163.764 155.713 163.794 156.031 163.854C156.352 163.91 156.662 164.028 156.961 164.207C157.262 164.386 157.512 164.656 157.711 165.017C157.91 165.378 158.01 165.862 158.01 166.469V171.5H156.836V170.466H156.777C156.697 170.632 156.565 170.809 156.379 170.998C156.193 171.187 155.946 171.348 155.638 171.48C155.33 171.613 154.954 171.679 154.51 171.679ZM154.689 170.625C155.153 170.625 155.544 170.534 155.862 170.352C156.183 170.169 156.425 169.934 156.588 169.646C156.753 169.357 156.836 169.054 156.836 168.736V167.662C156.787 167.722 156.677 167.776 156.508 167.826C156.342 167.872 156.15 167.914 155.931 167.95C155.716 167.983 155.506 168.013 155.3 168.04C155.098 168.063 154.934 168.083 154.808 168.099C154.503 168.139 154.218 168.204 153.953 168.293C153.691 168.379 153.479 168.51 153.316 168.686C153.157 168.858 153.078 169.094 153.078 169.392C153.078 169.8 153.229 170.108 153.53 170.317C153.835 170.522 154.221 170.625 154.689 170.625ZM159.112 164.957V163.864H165.317V164.957H162.811V171.5H161.638V164.957H159.112ZM168.201 169.77L171.88 163.864H173.233V171.5H172.059V165.594L168.4 171.5H167.028V163.864H168.201V169.77ZM178.882 164.957V163.864H185.086V164.957H182.58V171.5H181.407V164.957H178.882ZM188.648 171.679C188.164 171.679 187.725 171.588 187.331 171.406C186.936 171.22 186.623 170.953 186.391 170.605C186.159 170.254 186.043 169.83 186.043 169.332C186.043 168.895 186.129 168.54 186.302 168.268C186.474 167.993 186.704 167.778 186.993 167.622C187.281 167.466 187.599 167.35 187.947 167.274C188.299 167.195 188.652 167.132 189.006 167.085C189.47 167.026 189.846 166.981 190.135 166.951C190.426 166.918 190.639 166.863 190.771 166.787C190.907 166.711 190.975 166.578 190.975 166.389V166.349C190.975 165.859 190.841 165.478 190.572 165.206C190.307 164.934 189.904 164.798 189.364 164.798C188.804 164.798 188.365 164.921 188.047 165.166C187.729 165.411 187.505 165.673 187.376 165.952L186.262 165.554C186.461 165.09 186.726 164.729 187.057 164.47C187.392 164.208 187.757 164.026 188.151 163.923C188.549 163.817 188.94 163.764 189.324 163.764C189.57 163.764 189.851 163.794 190.17 163.854C190.491 163.91 190.801 164.028 191.099 164.207C191.401 164.386 191.651 164.656 191.85 165.017C192.049 165.378 192.148 165.862 192.148 166.469V171.5H190.975V170.466H190.915C190.836 170.632 190.703 170.809 190.518 170.998C190.332 171.187 190.085 171.348 189.777 171.48C189.469 171.613 189.092 171.679 188.648 171.679ZM188.827 170.625C189.291 170.625 189.682 170.534 190.001 170.352C190.322 170.169 190.564 169.934 190.726 169.646C190.892 169.357 190.975 169.054 190.975 168.736V167.662C190.925 167.722 190.816 167.776 190.647 167.826C190.481 167.872 190.289 167.914 190.07 167.95C189.855 167.983 189.644 168.013 189.439 168.04C189.237 168.063 189.073 168.083 188.947 168.099C188.642 168.139 188.357 168.204 188.091 168.293C187.83 168.379 187.617 168.51 187.455 168.686C187.296 168.858 187.216 169.094 187.216 169.392C187.216 169.8 187.367 170.108 187.669 170.317C187.974 170.522 188.36 170.625 188.827 170.625ZM198.227 171.5V163.864H204.233V171.5H203.06V164.957H199.401V171.5H198.227ZM209.478 171.659C208.789 171.659 208.184 171.495 207.663 171.167C207.146 170.839 206.742 170.38 206.45 169.79C206.162 169.2 206.018 168.51 206.018 167.722C206.018 166.926 206.162 166.232 206.45 165.638C206.742 165.045 207.146 164.585 207.663 164.256C208.184 163.928 208.789 163.764 209.478 163.764C210.167 163.764 210.771 163.928 211.288 164.256C211.808 164.585 212.212 165.045 212.501 165.638C212.792 166.232 212.938 166.926 212.938 167.722C212.938 168.51 212.792 169.2 212.501 169.79C212.212 170.38 211.808 170.839 211.288 171.167C210.771 171.495 210.167 171.659 209.478 171.659ZM209.478 170.605C210.002 170.605 210.433 170.471 210.771 170.202C211.109 169.934 211.359 169.581 211.521 169.143C211.684 168.706 211.765 168.232 211.765 167.722C211.765 167.211 211.684 166.736 211.521 166.295C211.359 165.854 211.109 165.498 210.771 165.226C210.433 164.954 210.002 164.818 209.478 164.818C208.954 164.818 208.523 164.954 208.185 165.226C207.847 165.498 207.597 165.854 207.435 166.295C207.272 166.736 207.191 167.211 207.191 167.722C207.191 168.232 207.272 168.706 207.435 169.143C207.597 169.581 207.847 169.934 208.185 170.202C208.523 170.471 208.954 170.605 209.478 170.605ZM220.616 163.864V171.5H219.442V163.864H220.616ZM220.158 167.503V168.597C219.893 168.696 219.63 168.784 219.368 168.86C219.106 168.933 218.831 168.991 218.542 169.034C218.254 169.074 217.938 169.094 217.593 169.094C216.728 169.094 216.033 168.86 215.51 168.393C214.989 167.925 214.729 167.224 214.729 166.29V163.844H215.903V166.29C215.903 166.681 215.977 167.002 216.126 167.254C216.275 167.506 216.478 167.693 216.733 167.816C216.988 167.939 217.275 168 217.593 168C218.09 168 218.539 167.955 218.94 167.866C219.345 167.773 219.751 167.652 220.158 167.503ZM227.879 167.145V168.239H223.663V167.145H227.879ZM223.942 163.864V171.5H222.768V163.864H223.942ZM228.774 163.864V171.5H227.601V163.864H228.774ZM230.917 171.5V163.864H232.09V171.5H230.917ZM231.513 162.591C231.285 162.591 231.087 162.513 230.922 162.357C230.759 162.201 230.678 162.014 230.678 161.795C230.678 161.577 230.759 161.389 230.922 161.234C231.087 161.078 231.285 161 231.513 161C231.742 161 231.938 161.078 232.1 161.234C232.266 161.389 232.349 161.577 232.349 161.795C232.349 162.014 232.266 162.201 232.1 162.357C231.938 162.513 231.742 162.591 231.513 162.591ZM233.801 164.957V163.864H240.006V164.957H237.5V171.5H236.327V164.957H233.801ZM242.732 166.628H244.919C245.814 166.628 246.499 166.855 246.972 167.309C247.446 167.763 247.683 168.338 247.683 169.034C247.683 169.491 247.577 169.907 247.365 170.282C247.153 170.653 246.842 170.95 246.431 171.172C246.02 171.391 245.516 171.5 244.919 171.5H241.718V163.864H242.891V170.406H244.919C245.383 170.406 245.764 170.284 246.063 170.038C246.361 169.793 246.51 169.478 246.51 169.094C246.51 168.689 246.361 168.36 246.063 168.104C245.764 167.849 245.383 167.722 244.919 167.722H242.732V166.628ZM253.407 174.364V163.864H254.54V165.077H254.68C254.766 164.944 254.885 164.775 255.038 164.57C255.193 164.361 255.415 164.175 255.704 164.013C255.996 163.847 256.39 163.764 256.887 163.764C257.53 163.764 258.097 163.925 258.587 164.246C259.078 164.568 259.461 165.024 259.736 165.614C260.011 166.204 260.148 166.9 260.148 167.702C260.148 168.51 260.011 169.211 259.736 169.805C259.461 170.395 259.08 170.852 258.592 171.177C258.105 171.498 257.543 171.659 256.907 171.659C256.416 171.659 256.024 171.578 255.729 171.415C255.434 171.25 255.207 171.062 255.048 170.854C254.888 170.642 254.766 170.466 254.68 170.327H254.58V174.364H253.407ZM254.56 167.682C254.56 168.259 254.645 168.767 254.814 169.208C254.983 169.646 255.23 169.989 255.555 170.237C255.88 170.482 256.277 170.605 256.748 170.605C257.238 170.605 257.648 170.476 257.976 170.217C258.307 169.955 258.556 169.604 258.722 169.163C258.891 168.719 258.975 168.225 258.975 167.682C258.975 167.145 258.892 166.661 258.727 166.23C258.564 165.796 258.317 165.453 257.986 165.201C257.658 164.946 257.245 164.818 256.748 164.818C256.271 164.818 255.87 164.939 255.545 165.181C255.22 165.42 254.975 165.754 254.809 166.185C254.643 166.613 254.56 167.112 254.56 167.682ZM265.04 171.659C264.351 171.659 263.746 171.495 263.226 171.167C262.709 170.839 262.304 170.38 262.013 169.79C261.724 169.2 261.58 168.51 261.58 167.722C261.58 166.926 261.724 166.232 262.013 165.638C262.304 165.045 262.709 164.585 263.226 164.256C263.746 163.928 264.351 163.764 265.04 163.764C265.73 163.764 266.333 163.928 266.85 164.256C267.371 164.585 267.775 165.045 268.063 165.638C268.355 166.232 268.501 166.926 268.501 167.722C268.501 168.51 268.355 169.2 268.063 169.79C267.775 170.38 267.371 170.839 266.85 171.167C266.333 171.495 265.73 171.659 265.04 171.659ZM265.04 170.605C265.564 170.605 265.995 170.471 266.333 170.202C266.671 169.934 266.921 169.581 267.084 169.143C267.246 168.706 267.327 168.232 267.327 167.722C267.327 167.211 267.246 166.736 267.084 166.295C266.921 165.854 266.671 165.498 266.333 165.226C265.995 164.954 265.564 164.818 265.04 164.818C264.517 164.818 264.086 164.954 263.748 165.226C263.41 165.498 263.16 165.854 262.997 166.295C262.835 166.736 262.754 167.211 262.754 167.722C262.754 168.232 262.835 168.706 262.997 169.143C263.16 169.581 263.41 169.934 263.748 170.202C264.086 170.471 264.517 170.605 265.04 170.605ZM269.814 169.551H271.067C271.094 169.896 271.25 170.158 271.535 170.337C271.823 170.516 272.198 170.605 272.658 170.605C273.129 170.605 273.532 170.509 273.866 170.317C274.201 170.121 274.368 169.806 274.368 169.372C274.368 169.117 274.305 168.895 274.18 168.706C274.054 168.514 273.876 168.365 273.648 168.259C273.419 168.152 273.149 168.099 272.837 168.099H271.525V167.045H272.837C273.305 167.045 273.649 166.939 273.871 166.727C274.097 166.515 274.209 166.25 274.209 165.932C274.209 165.59 274.088 165.317 273.846 165.112C273.604 164.903 273.261 164.798 272.817 164.798C272.37 164.798 271.997 164.899 271.699 165.102C271.4 165.3 271.243 165.557 271.226 165.872H269.993C270.007 165.461 270.133 165.098 270.371 164.783C270.61 164.465 270.935 164.217 271.346 164.038C271.757 163.855 272.227 163.764 272.758 163.764C273.295 163.764 273.76 163.859 274.155 164.048C274.552 164.233 274.859 164.487 275.074 164.808C275.293 165.126 275.403 165.488 275.403 165.892C275.403 166.323 275.282 166.671 275.04 166.936C274.798 167.201 274.494 167.39 274.13 167.503V167.582C274.418 167.602 274.668 167.695 274.881 167.861C275.096 168.023 275.263 168.237 275.383 168.502C275.502 168.764 275.562 169.054 275.562 169.372C275.562 169.836 275.437 170.241 275.189 170.585C274.94 170.927 274.599 171.192 274.165 171.381C273.73 171.566 273.235 171.659 272.678 171.659C272.138 171.659 271.654 171.571 271.226 171.396C270.799 171.217 270.459 170.97 270.207 170.655C269.959 170.337 269.828 169.969 269.814 169.551ZM281.386 169.909L284.051 163.864H285.164L281.863 171.5H280.909L277.667 163.864H278.761L281.386 169.909ZM278.383 163.864V171.5H277.21V163.864H278.383ZM284.389 171.5V163.864H285.562V171.5H284.389ZM290.812 171.659C290.123 171.659 289.518 171.495 288.997 171.167C288.48 170.839 288.076 170.38 287.784 169.79C287.496 169.2 287.352 168.51 287.352 167.722C287.352 166.926 287.496 166.232 287.784 165.638C288.076 165.045 288.48 164.585 288.997 164.256C289.518 163.928 290.123 163.764 290.812 163.764C291.501 163.764 292.105 163.928 292.622 164.256C293.142 164.585 293.546 165.045 293.835 165.638C294.126 166.232 294.272 166.926 294.272 167.722C294.272 168.51 294.126 169.2 293.835 169.79C293.546 170.38 293.142 170.839 292.622 171.167C292.105 171.495 291.501 171.659 290.812 171.659ZM290.812 170.605C291.336 170.605 291.767 170.471 292.105 170.202C292.443 169.934 292.693 169.581 292.855 169.143C293.018 168.706 293.099 168.232 293.099 167.722C293.099 167.211 293.018 166.736 292.855 166.295C292.693 165.854 292.443 165.498 292.105 165.226C291.767 164.954 291.336 164.818 290.812 164.818C290.288 164.818 289.857 164.954 289.519 165.226C289.181 165.498 288.931 165.854 288.769 166.295C288.606 166.736 288.525 167.211 288.525 167.722C288.525 168.232 288.606 168.706 288.769 169.143C288.931 169.581 289.181 169.934 289.519 170.202C289.857 170.471 290.288 170.605 290.812 170.605ZM296.063 171.5V163.864H299.185C300.007 163.864 300.66 164.049 301.144 164.42C301.628 164.792 301.87 165.282 301.87 165.892C301.87 166.356 301.732 166.716 301.457 166.971C301.182 167.223 300.829 167.393 300.398 167.483C300.68 167.523 300.954 167.622 301.219 167.781C301.487 167.94 301.709 168.159 301.885 168.438C302.061 168.713 302.148 169.051 302.148 169.452C302.148 169.843 302.049 170.192 301.85 170.501C301.651 170.809 301.366 171.053 300.995 171.232C300.624 171.411 300.18 171.5 299.663 171.5H296.063ZM297.177 170.426H299.663C300.067 170.426 300.384 170.33 300.612 170.138C300.841 169.946 300.955 169.684 300.955 169.352C300.955 168.958 300.841 168.648 300.612 168.423C300.384 168.194 300.067 168.08 299.663 168.08H297.177V170.426ZM297.177 167.065H299.185C299.5 167.065 299.77 167.022 299.996 166.936C300.221 166.847 300.393 166.721 300.513 166.558C300.635 166.393 300.697 166.197 300.697 165.972C300.697 165.65 300.563 165.398 300.294 165.216C300.026 165.03 299.656 164.938 299.185 164.938H297.177V167.065ZM304.68 174.364C304.481 174.364 304.304 174.347 304.148 174.314C303.992 174.284 303.885 174.254 303.825 174.224L304.123 173.19C304.408 173.263 304.66 173.29 304.879 173.27C305.098 173.25 305.292 173.152 305.461 172.977C305.633 172.804 305.791 172.524 305.933 172.136L306.152 171.54L303.328 163.864H304.601L306.709 169.949H306.788L308.896 163.864H310.169L306.927 172.614C306.782 173.008 306.601 173.335 306.385 173.593C306.17 173.855 305.92 174.049 305.635 174.175C305.353 174.301 305.035 174.364 304.68 174.364Z" fill="#666666"/>
</svg>
