<svg width="40" height="40" viewBox="0 0 40 40" fill="none" xmlns="http://www.w3.org/2000/svg">
<g clip-path="url(#clip0_53_507)">
<path d="M18.5477 27.4893C18.694 27.7426 18.9043 27.9529 19.1576 28.0992C19.4109 28.2454 19.6983 28.3224 19.9908 28.3224C20.2833 28.3224 20.5706 28.2454 20.8239 28.0992C21.0772 27.9529 21.2876 27.7426 21.4338 27.4893" stroke="#666666" stroke-width="1.66633" stroke-linecap="round" stroke-linejoin="round"/>
<path d="M12.7106 22.7619C12.6018 22.8812 12.5299 23.0296 12.5039 23.1889C12.4778 23.3483 12.4986 23.5118 12.5637 23.6596C12.6289 23.8073 12.7355 23.933 12.8708 24.0212C13.006 24.1095 13.164 24.1565 13.3255 24.1566H26.6561C26.8176 24.1567 26.9756 24.1098 27.1109 24.0217C27.2462 23.9337 27.3531 23.8082 27.4184 23.6605C27.4837 23.5128 27.5047 23.3494 27.4788 23.19C27.453 23.0306 27.3813 22.8822 27.2727 22.7627C26.1646 21.6205 24.9898 20.4066 24.9898 16.6581C24.9898 15.3323 24.4631 14.0608 23.5256 13.1233C22.5881 12.1858 21.3166 11.6591 19.9908 11.6591C18.665 11.6591 17.3935 12.1858 16.456 13.1233C15.5185 14.0608 14.9918 15.3323 14.9918 16.6581C14.9918 20.4066 13.8162 21.6205 12.7106 22.7619Z" stroke="#666666" stroke-width="1.66633" stroke-linecap="round" stroke-linejoin="round"/>
</g>
<path d="M23.9993 11.9945C23.9993 9.78636 25.7893 7.99632 27.9974 7.99632C30.2056 7.99632 31.9956 9.78636 31.9956 11.9945C31.9956 14.2026 30.2056 15.9926 27.9974 15.9926C25.7893 15.9926 23.9993 14.2026 23.9993 11.9945Z" fill="#007AFF"/>
<defs>
<clipPath id="clip0_53_507">
<rect width="19.996" height="19.996" fill="white" transform="translate(9.9928 9.99281)"/>
</clipPath>
</defs>
</svg>
