<svg width="40" height="40" viewBox="0 0 40 40" fill="none" xmlns="http://www.w3.org/2000/svg">
<g clip-path="url(#clip0_53_512)">
<path d="M20.1741 11.6643H19.8075C19.3656 11.6643 18.9417 11.8399 18.6292 12.1524C18.3167 12.4649 18.1412 12.8887 18.1412 13.3307V13.4806C18.1409 13.7728 18.0637 14.0598 17.9175 14.3128C17.7713 14.5658 17.5611 14.7759 17.308 14.922L16.9497 15.1303C16.6964 15.2765 16.4091 15.3535 16.1166 15.3535C15.8241 15.3535 15.5367 15.2765 15.2834 15.1303L15.1584 15.0636C14.7761 14.8431 14.3218 14.7832 13.8954 14.8973C13.4689 15.0113 13.1051 15.2899 12.8839 15.6718L12.7006 15.9885C12.48 16.3708 12.4202 16.8251 12.5342 17.2515C12.6483 17.678 12.9268 18.0417 13.3088 18.263L13.4338 18.3463C13.6856 18.4917 13.895 18.7005 14.0412 18.9519C14.1874 19.2033 14.2652 19.4886 14.267 19.7794V20.2043C14.2681 20.4979 14.1917 20.7866 14.0454 21.0412C13.8991 21.2958 13.6881 21.5072 13.4338 21.654L13.3088 21.729C12.9268 21.9502 12.6483 22.314 12.5342 22.7404C12.4202 23.1669 12.48 23.6211 12.7006 24.0035L12.8839 24.3201C13.1051 24.7021 13.4689 24.9807 13.8954 25.0947C14.3218 25.2087 14.7761 25.1489 15.1584 24.9283L15.2834 24.8617C15.5367 24.7154 15.8241 24.6384 16.1166 24.6384C16.4091 24.6384 16.6964 24.7154 16.9497 24.8617L17.308 25.07C17.5611 25.2161 17.7713 25.4261 17.9175 25.6791C18.0637 25.9321 18.1409 26.2191 18.1412 26.5113V26.6613C18.1412 27.1032 18.3167 27.5271 18.6292 27.8396C18.9417 28.1521 19.3656 28.3276 19.8075 28.3276H20.1741C20.616 28.3276 21.0399 28.1521 21.3524 27.8396C21.6649 27.5271 21.8404 27.1032 21.8404 26.6613V26.5113C21.8407 26.2191 21.9179 25.9321 22.0641 25.6791C22.2103 25.4261 22.4205 25.2161 22.6736 25.07L23.0319 24.8617C23.2852 24.7154 23.5725 24.6384 23.865 24.6384C24.1575 24.6384 24.4449 24.7154 24.6982 24.8617L24.8232 24.9283C25.2055 25.1489 25.6598 25.2087 26.0862 25.0947C26.5127 24.9807 26.8765 24.7021 27.0977 24.3201L27.281 23.9952C27.5016 23.6128 27.5614 23.1585 27.4474 22.7321C27.3333 22.3057 27.0548 21.9419 26.6728 21.7206L26.5478 21.654C26.2935 21.5072 26.0825 21.2958 25.9362 21.0412C25.7899 20.7866 25.7135 20.4979 25.7146 20.2043V19.7877C25.7135 19.4941 25.7899 19.2053 25.9362 18.9508C26.0825 18.6962 26.2935 18.4848 26.5478 18.338L26.6728 18.263C27.0548 18.0417 27.3333 17.678 27.4474 17.2515C27.5614 16.8251 27.5016 16.3708 27.281 15.9885L27.0977 15.6718C26.8765 15.2899 26.5127 15.0113 26.0862 14.8973C25.6598 14.7832 25.2055 14.8431 24.8232 15.0636L24.6982 15.1303C24.4449 15.2765 24.1575 15.3535 23.865 15.3535C23.5725 15.3535 23.2852 15.2765 23.0319 15.1303L22.6736 14.922C22.4205 14.7759 22.2103 14.5658 22.0641 14.3128C21.9179 14.0598 21.8407 13.7728 21.8404 13.4806V13.3307C21.8404 12.8887 21.6649 12.4649 21.3524 12.1524C21.0399 11.8399 20.616 11.6643 20.1741 11.6643Z" stroke="#666666" stroke-width="1.66633" stroke-linecap="round" stroke-linejoin="round"/>
<path d="M19.9908 22.4955C21.3712 22.4955 22.4903 21.3764 22.4903 19.996C22.4903 18.6155 21.3712 17.4965 19.9908 17.4965C18.6103 17.4965 17.4913 18.6155 17.4913 19.996C17.4913 21.3764 18.6103 22.4955 19.9908 22.4955Z" stroke="#666666" stroke-width="1.66633" stroke-linecap="round" stroke-linejoin="round"/>
</g>
<defs>
<clipPath id="clip0_53_512">
<rect width="19.996" height="19.996" fill="white" transform="translate(9.9928 9.99799)"/>
</clipPath>
</defs>
</svg>
